<svg viewBox="0 0 44 44" fill="none" xmlns="http://www.w3.org/2000/svg">
    <rect width="44" height="44" rx="22" fill="#3E7EFF"/>
    <mask id="mask0_1174_408" style="mask-type:luminance" maskUnits="userSpaceOnUse" x="0" y="0" width="44" height="44">
    <rect width="44" height="44" rx="22" fill="white"/>
    </mask>
    <g mask="url(#mask0_1174_408)">
    <path fill-rule="evenodd" clip-rule="evenodd" d="M25.2263 22.2745C24.6945 22.4577 24.1139 22.2114 23.9308 21.6795L21.3211 14.1006C21.1533 13.6131 21.4439 13.0173 21.9757 12.8341L27.6488 10.8807C28.1364 10.7129 28.7322 11.0035 28.9001 11.491L31.5097 19.0699C31.6928 19.6018 31.387 20.1533 30.8994 20.3211L25.2263 22.2745ZM14.4444 21.7731C13.9569 21.941 13.3611 21.6504 13.1932 21.1628L11.8807 17.3512C11.7129 16.8637 12.0035 16.2679 12.491 16.1L18.1641 14.1466C18.696 13.9634 19.2918 14.254 19.4597 14.7416L20.7721 18.5532C20.94 19.0407 20.6494 19.6366 20.1175 19.8197L14.4444 21.7731ZM17.1 32.5091C17.2679 32.9966 17.8637 33.2872 18.3512 33.1193L24.0243 31.1659C24.5562 30.9828 24.8468 30.387 24.6789 29.8994L22.0693 22.3205C21.8862 21.7886 21.3056 21.5424 20.7737 21.7255L15.1006 23.6789C14.6131 23.8468 14.3072 24.3983 14.4904 24.9301L17.1 32.5091Z" fill="white"/>
    </g>
</svg>
